<svg xmlns="http://www.w3.org/2000/svg" width="1280" height="720" viewBox="0 0 1280 720" role="img" aria-labelledby="title desc">
  <title id="title">Extensions and tags drift tab</title>
  <desc id="desc">Representative screenshot of extension and tag drift visuals.</desc>
  <rect width="1280" height="720" fill="#f6f8fb"/>
  <rect x="40" y="36" width="1200" height="648" rx="18" fill="#ffffff" stroke="#d7deea"/>
  <text x="78" y="92" font-family="Segoe UI, Arial" font-size="34" font-weight="700" fill="#1f2937">Extensions / Tags</text>
  <text x="78" y="128" font-family="Segoe UI, Arial" font-size="18" fill="#4b5563">Operational baseline drift across required extensions and metadata tags</text>
  <g transform="translate(78 170)">
    <rect width="520" height="410" rx="14" fill="#ffffff" stroke="#d7deea"/>
    <text x="28" y="44" font-family="Segoe UI, Arial" font-size="22" font-weight="600" fill="#111827">Missing required extensions</text>
    <g font-family="Segoe UI, Arial" font-size="16" fill="#334155">
      <text x="28" y="94">Azure Monitor Agent</text><rect x="250" y="76" width="190" height="24" rx="12" fill="#f97316"/><text x="452" y="94">3</text>
      <text x="28" y="144">Change Tracking</text><rect x="250" y="126" width="130" height="24" rx="12" fill="#f59e0b"/><text x="392" y="144">2</text>
      <text x="28" y="194">Defender</text><rect x="250" y="176" width="250" height="24" rx="12" fill="#ef4444"/><text x="512" y="194">4</text>
      <text x="28" y="244">Azure Policy</text><rect x="250" y="226" width="70" height="24" rx="12" fill="#60a5fa"/><text x="332" y="244">1</text>
    </g>
  </g>
  <g transform="translate(640 170)">
    <rect width="520" height="410" rx="14" fill="#ffffff" stroke="#d7deea"/>
    <text x="28" y="44" font-family="Segoe UI, Arial" font-size="22" font-weight="600" fill="#111827">Missing required tags</text>
    <g font-family="Segoe UI, Arial" font-size="16" fill="#334155">
      <text x="28" y="94">environment</text><rect x="250" y="76" width="250" height="24" rx="12" fill="#ef4444"/><text x="512" y="94">4</text>
      <text x="28" y="144">owner</text><rect x="250" y="126" width="190" height="24" rx="12" fill="#f97316"/><text x="452" y="144">3</text>
      <text x="28" y="194">costCenter</text><rect x="250" y="176" width="130" height="24" rx="12" fill="#f59e0b"/><text x="392" y="194">2</text>
      <text x="28" y="244">dataClassification</text><rect x="250" y="226" width="190" height="24" rx="12" fill="#f97316"/><text x="452" y="244">3</text>
    </g>
  </g>
</svg>
