<svg xmlns="http://www.w3.org/2000/svg" width="1280" height="720" viewBox="0 0 1280 720" role="img" aria-labelledby="title desc">
  <title id="title">OS changes and inventory tabs</title>
  <desc id="desc">Representative screenshot of Change Tracking and Inventory data.</desc>
  <rect width="1280" height="720" fill="#f6f8fb"/>
  <rect x="40" y="36" width="1200" height="648" rx="18" fill="#ffffff" stroke="#d7deea"/>
  <text x="78" y="92" font-family="Segoe UI, Arial" font-size="34" font-weight="700" fill="#1f2937">OS Changes / OS Inventory</text>
  <text x="78" y="128" font-family="Segoe UI, Arial" font-size="18" fill="#4b5563">Change Tracking and Inventory from Log Analytics</text>
  <g transform="translate(78 170)">
    <rect width="500" height="190" rx="14" fill="#eef2ff" stroke="#c4b5fd"/>
    <text x="28" y="44" font-family="Segoe UI, Arial" font-size="22" font-weight="600" fill="#3730a3">Changes by type</text>
    <text x="36" y="94" font-family="Segoe UI, Arial" font-size="16" fill="#334155">Daemons</text><rect x="170" y="76" width="230" height="24" rx="12" fill="#8b5cf6"/>
    <text x="36" y="134" font-family="Segoe UI, Arial" font-size="16" fill="#334155">Services</text><rect x="170" y="116" width="150" height="24" rx="12" fill="#6366f1"/>
    <text x="36" y="174" font-family="Segoe UI, Arial" font-size="16" fill="#334155">Software</text><rect x="170" y="156" width="110" height="24" rx="12" fill="#60a5fa"/>
  </g>
  <g transform="translate(650 170)">
    <rect width="500" height="190" rx="14" fill="#ecfdf5" stroke="#86efac"/>
    <text x="28" y="44" font-family="Segoe UI, Arial" font-size="22" font-weight="600" fill="#065f46">Inventory records</text>
    <text x="36" y="100" font-family="Segoe UI, Arial" font-size="48" font-weight="700" fill="#047857">16K+</text>
    <text x="36" y="140" font-family="Segoe UI, Arial" font-size="18" fill="#334155">Software, services, daemons, files, and heartbeat</text>
  </g>
  <rect x="78" y="408" width="1072" height="180" rx="14" fill="#ffffff" stroke="#d7deea"/>
  <text x="106" y="450" font-family="Segoe UI, Arial" font-size="22" font-weight="600" fill="#111827">Recent tracked changes</text>
  <line x1="106" y1="476" x2="1122" y2="476" stroke="#e5e7eb"/>
  <text x="110" y="508" font-family="Segoe UI, Arial" font-size="14" font-weight="700" fill="#64748b">Computer</text>
  <text x="360" y="508" font-family="Segoe UI, Arial" font-size="14" font-weight="700" fill="#64748b">Change type</text>
  <text x="560" y="508" font-family="Segoe UI, Arial" font-size="14" font-weight="700" fill="#64748b">Category</text>
  <text x="760" y="508" font-family="Segoe UI, Arial" font-size="14" font-weight="700" fill="#64748b">Target</text>
  <text x="110" y="548" font-family="Segoe UI, Arial" font-size="16" fill="#1f2937">arc-server-01</text>
  <text x="360" y="548" font-family="Segoe UI, Arial" font-size="16" fill="#1f2937">Software</text>
  <text x="560" y="548" font-family="Segoe UI, Arial" font-size="16" fill="#b45309">Modified</text>
  <text x="760" y="548" font-family="Segoe UI, Arial" font-size="16" fill="#1f2937">Package version</text>
</svg>
