<svg xmlns="http://www.w3.org/2000/svg" width="1280" height="720" viewBox="0 0 1280 720" role="img" aria-labelledby="title desc">
  <title id="title">Updates tab</title>
  <desc id="desc">Representative screenshot of pending patch assessment data.</desc>
  <rect width="1280" height="720" fill="#f6f8fb"/>
  <rect x="40" y="36" width="1200" height="648" rx="18" fill="#ffffff" stroke="#d7deea"/>
  <text x="78" y="92" font-family="Segoe UI, Arial" font-size="34" font-weight="700" fill="#1f2937">Updates</text>
  <text x="78" y="128" font-family="Segoe UI, Arial" font-size="18" fill="#4b5563">Azure Update Manager patch assessment across Arc-enabled servers and Azure VMs</text>
  <g transform="translate(78 170)">
    <rect width="500" height="180" rx="14" fill="#fff7ed" stroke="#fdba74"/>
    <text x="28" y="44" font-family="Segoe UI, Arial" font-size="22" font-weight="600" fill="#9a3412">Pending patches by classification</text>
    <circle cx="128" cy="110" r="46" fill="#f97316"/>
    <path d="M128 64 A46 46 0 0 1 174 110 L128 110 Z" fill="#fb923c"/>
    <text x="220" y="105" font-family="Segoe UI, Arial" font-size="18" fill="#334155">Security, updates, tools, update rollups</text>
  </g>
  <g transform="translate(650 170)">
    <rect width="500" height="180" rx="14" fill="#f8fafc" stroke="#cbd5e1"/>
    <text x="28" y="44" font-family="Segoe UI, Arial" font-size="22" font-weight="600" fill="#111827">Pending patches by severity</text>
    <rect x="32" y="82" width="320" height="28" rx="14" fill="#94a3b8"/>
    <text x="370" y="103" font-family="Segoe UI, Arial" font-size="18" fill="#334155">Unrated</text>
  </g>
  <rect x="78" y="398" width="1072" height="190" rx="14" fill="#ffffff" stroke="#d7deea"/>
  <text x="106" y="440" font-family="Segoe UI, Arial" font-size="22" font-weight="600" fill="#111827">Pending updates per machine</text>
  <line x1="106" y1="466" x2="1122" y2="466" stroke="#e5e7eb"/>
  <text x="110" y="498" font-family="Segoe UI, Arial" font-size="14" font-weight="700" fill="#64748b">Machine</text>
  <text x="360" y="498" font-family="Segoe UI, Arial" font-size="14" font-weight="700" fill="#64748b">Pending</text>
  <text x="520" y="498" font-family="Segoe UI, Arial" font-size="14" font-weight="700" fill="#64748b">Critical</text>
  <text x="680" y="498" font-family="Segoe UI, Arial" font-size="14" font-weight="700" fill="#64748b">Oldest</text>
  <text x="110" y="540" font-family="Segoe UI, Arial" font-size="16" fill="#1f2937">server-or-vm-01</text>
  <text x="360" y="540" font-family="Segoe UI, Arial" font-size="16" fill="#1f2937">1</text>
  <text x="520" y="540" font-family="Segoe UI, Arial" font-size="16" fill="#047857">0</text>
  <text x="680" y="540" font-family="Segoe UI, Arial" font-size="16" fill="#1f2937">2026-04-14</text>
</svg>
